<svg width="677" height="309" viewBox="0 0 677 309" fill="none" xmlns="http://www.w3.org/2000/svg">
<path d="M437.465 130.936V95.4696H422.465C422.465 95.6029 422.453 95.8363 422.431 96.1696C422.409 96.5029 422.398 96.8483 422.398 97.2029C422.398 97.5603 422.386 97.8936 422.365 98.2029C422.342 98.5149 422.331 98.7376 422.331 98.8696C422.198 101.759 422.009 104.67 421.765 107.603C421.519 110.536 421.165 113.394 420.698 116.17C420.231 118.948 419.642 121.592 418.931 124.103C418.219 126.615 417.331 128.894 416.265 130.936H437.465ZM448.798 146.936H442.798V136.536H411.531V146.936H405.531V130.936H410.131C411.509 128.536 412.607 125.948 413.431 123.17C414.253 120.394 414.898 117.436 415.365 114.303C415.831 111.17 416.165 107.914 416.365 104.536C416.565 101.159 416.709 97.6696 416.798 94.0709L416.931 89.8696H443.465V130.936H448.798V146.936Z" fill="#414142"/>
<path d="M473.33 118.603H489.396L481.596 96.6697H481.33L473.33 118.603ZM491.33 124.071H471.396L466.863 136.536H460.796L478.596 89.8697H484.596L502.063 136.536H495.796L491.33 124.071Z" fill="#414142"/>
<path d="M550.995 136.536H544.995V95.4698H528.995C528.95 102.136 528.795 108.06 528.529 113.236C528.262 118.414 527.695 122.77 526.829 126.303C525.962 129.836 524.683 132.514 522.995 134.336C521.306 136.159 519.039 137.07 516.195 137.07C515.573 137.07 515.083 137.036 514.729 136.97C514.373 136.903 513.973 136.803 513.529 136.67V130.87C513.885 130.959 514.206 131.014 514.495 131.036C514.783 131.06 515.106 131.07 515.462 131.07C516.662 131.07 517.718 130.592 518.629 129.636C519.539 128.68 520.295 126.894 520.895 124.27C521.495 121.648 521.962 118.014 522.295 113.37C522.629 108.727 522.839 102.692 522.929 95.2698L522.995 89.8698H550.995V136.536Z" fill="#414142"/>
<path d="M575.195 133.003C576.395 132.471 577.449 131.703 578.361 130.703C579.272 129.703 580.105 128.36 580.861 126.669L581.328 125.603L563.928 89.8693H570.661L584.461 119.137L595.528 89.8693H601.595L586.328 127.669C585.972 128.56 585.528 129.481 584.995 130.436C584.461 131.393 583.861 132.304 583.195 133.169C582.528 134.036 581.783 134.825 580.961 135.536C580.139 136.248 579.283 136.804 578.395 137.203L575.195 133.003Z" fill="#414142"/>
<path d="M620.528 113.737H627.728C631.461 113.737 634.294 112.982 636.228 111.47C638.161 109.96 639.128 107.649 639.128 104.537C639.128 101.336 638.161 99.0264 636.228 97.6024C634.294 96.1811 631.461 95.4704 627.728 95.4704H620.528V113.737ZM620.528 136.537H614.528V89.8704H628.261C630.928 89.8704 633.316 90.1491 635.428 90.7038C637.538 91.2598 639.349 92.1371 640.861 93.3358C642.372 94.5371 643.528 96.0478 644.328 97.8704C645.128 99.6931 645.528 101.87 645.528 104.404C645.528 109.248 643.961 112.948 640.828 115.502C637.695 118.06 633.328 119.336 627.728 119.336H620.528V136.537Z" fill="#414142"/>
<path d="M355.108 283.607H358.303V25.7921H355.108V283.607Z" fill="#414142"/>
<path d="M410.336 205.696H416.103C419.094 205.696 421.364 205.091 422.912 203.88C424.46 202.671 425.235 200.82 425.235 198.327C425.235 195.764 424.46 193.915 422.912 192.773C421.364 191.636 419.094 191.065 416.103 191.065H410.336V205.696ZM410.336 223.959H405.531V186.58H416.531C418.667 186.58 420.58 186.803 422.271 187.248C423.962 187.693 425.414 188.396 426.622 189.356C427.834 190.317 428.759 191.529 429.399 192.988C430.042 194.448 430.36 196.192 430.36 198.221C430.36 202.101 429.106 205.065 426.596 207.112C424.087 209.159 420.59 210.181 416.103 210.181H410.336V223.959Z" fill="#035FA3"/>
<path d="M457.913 220.006C461.438 220.006 464.205 218.769 466.217 216.296C468.228 213.822 469.233 210.145 469.233 205.269C469.233 202.705 468.958 200.5 468.405 198.648C467.853 196.797 467.062 195.267 466.029 194.056C464.996 192.847 463.742 191.954 462.265 191.386C460.788 190.816 459.124 190.532 457.273 190.532C455.636 190.532 454.105 190.834 452.681 191.438C451.256 192.045 450.029 192.952 448.996 194.161C447.962 195.372 447.145 196.904 446.54 198.756C445.934 200.606 445.633 202.777 445.633 205.269C445.633 207.726 445.926 209.88 446.513 211.729C447.101 213.581 447.929 215.121 448.996 216.349C450.065 217.577 451.354 218.494 452.868 219.098C454.38 219.705 456.061 220.006 457.913 220.006ZM457.434 224.493C454.834 224.493 452.493 224.046 450.412 223.156C448.33 222.268 446.549 220.994 445.072 219.34C443.594 217.684 442.464 215.664 441.681 213.278C440.897 210.894 440.506 208.225 440.506 205.269C440.506 202.278 440.914 199.601 441.734 197.233C442.552 194.866 443.701 192.855 445.178 191.2C446.656 189.544 448.425 188.271 450.492 187.381C452.554 186.492 454.817 186.047 457.273 186.047C460.049 186.047 462.497 186.52 464.614 187.461C466.732 188.404 468.513 189.723 469.956 191.413C471.396 193.104 472.49 195.133 473.238 197.5C473.986 199.868 474.36 202.457 474.36 205.269C474.36 208.438 473.933 211.224 473.08 213.625C472.224 216.029 471.049 218.032 469.554 219.633C468.058 221.234 466.278 222.446 464.214 223.264C462.149 224.082 459.889 224.493 457.434 224.493Z" fill="#035FA3"/>
<path d="M512.379 222.943C511.346 223.443 510.135 223.824 508.747 224.092C507.358 224.359 505.846 224.493 504.209 224.493C501.29 224.493 498.683 224.056 496.386 223.184C494.091 222.312 492.142 221.057 490.541 219.42C488.937 217.781 487.71 215.815 486.855 213.52C485.999 211.223 485.574 208.635 485.574 205.749C485.574 202.581 485.999 199.769 486.855 197.313C487.71 194.856 488.937 192.793 490.541 191.12C492.142 189.445 494.071 188.181 496.333 187.328C498.593 186.473 501.113 186.047 503.889 186.047C506.023 186.047 507.759 186.197 509.094 186.499C510.43 186.803 511.542 187.132 512.431 187.487L511.523 191.705C510.349 191.279 509.157 190.977 507.947 190.799C506.737 190.621 505.543 190.531 504.369 190.531C499.918 190.531 496.529 191.777 494.197 194.269C491.865 196.761 490.699 200.429 490.699 205.269C490.699 207.583 491.029 209.657 491.687 211.491C492.346 213.324 493.279 214.872 494.49 216.135C495.701 217.399 497.177 218.36 498.922 219.019C500.666 219.677 502.642 220.007 504.849 220.007C506.023 220.007 507.207 219.9 508.399 219.687C509.593 219.472 510.653 219.135 511.577 218.672L512.379 222.943Z" fill="#035FA3"/>
<path d="M531.546 209.594H544.414L538.166 192.027H537.954L531.546 209.594ZM545.963 213.972H529.998L526.367 223.958H521.507L535.765 186.579H540.57L554.561 223.958H549.541L545.963 213.972Z" fill="#035FA3"/>
<path d="M574.157 223.958H569.352V191.066H558.297V186.58H585.211V191.066H574.157V223.958Z" fill="#035FA3"/>
<path d="M610.628 220.006C614.154 220.006 616.92 218.769 618.932 216.296C620.943 213.822 621.948 210.145 621.948 205.269C621.948 202.705 621.674 200.5 621.122 198.648C620.568 196.797 619.778 195.267 618.746 194.056C617.712 192.847 616.458 191.954 614.982 191.386C613.503 190.816 611.839 190.532 609.988 190.532C608.351 190.532 606.82 190.834 605.396 191.438C603.971 192.045 602.744 192.952 601.712 194.161C600.679 195.372 599.86 196.904 599.256 198.756C598.65 200.606 598.348 202.777 598.348 205.269C598.348 207.726 598.642 209.88 599.228 211.729C599.816 213.581 600.644 215.121 601.712 216.349C602.78 217.577 604.07 218.494 605.583 219.098C607.096 219.705 608.778 220.006 610.628 220.006ZM610.15 224.493C607.55 224.493 605.208 224.046 603.128 223.156C601.046 222.268 599.264 220.994 597.788 219.34C596.31 217.684 595.179 215.664 594.396 213.278C593.612 210.894 593.222 208.225 593.222 205.269C593.222 202.278 593.63 199.601 594.45 197.233C595.268 194.866 596.416 192.855 597.894 191.2C599.371 189.544 601.142 188.271 603.208 187.381C605.27 186.492 607.532 186.047 609.988 186.047C612.766 186.047 615.212 186.52 617.331 187.461C619.447 188.404 621.228 189.723 622.671 191.413C624.111 193.104 625.207 195.133 625.955 197.5C626.703 199.868 627.075 202.457 627.075 205.269C627.075 208.438 626.648 211.224 625.795 213.625C624.939 216.029 623.764 218.032 622.27 219.633C620.774 221.234 618.994 222.446 616.93 223.264C614.866 224.082 612.604 224.493 610.15 224.493Z" fill="#035FA3"/>
<path d="M676.413 223.958H671.609L669.312 194.75L659.86 223.958H654.841L645.441 194.856L643.096 223.958H638.288L641.492 186.58H647.365L657.459 218.726L667.336 186.58H673.209L676.413 223.958Z" fill="#035FA3"/>
<path d="M131.251 133.009C119.328 146.235 120.349 166.669 133.537 178.644C146.721 190.617 167.083 189.612 179.032 176.389C190.955 163.165 189.939 142.736 176.753 130.761C170.585 125.16 162.843 122.397 155.125 122.397C146.349 122.397 137.607 125.971 131.251 133.009" fill="url(#paint0_radial)"/>
<path d="M62.8453 31.252C110.267 8.26931 143.12 24.124 163.524 44.1893C166.236 46.844 168.728 49.564 170.992 52.2733C183.955 67.8053 190.015 83.0627 190.015 83.0627C198.284 84.5973 206.012 85.0214 213.219 84.6667C213.685 84.6387 214.116 84.6386 214.592 84.6066C215.021 84.5693 215.417 84.5173 215.848 84.484C231.797 83.0453 252.512 76.932 271.449 57.9493C272.101 57.2987 272.752 56.604 273.397 55.9213C270.471 52.424 267.447 48.9719 264.167 45.6773C234.019 15.6279 194.601 0.609295 155.187 0.606628C122.673 0.605295 90.1653 10.8226 62.8453 31.252" fill="url(#paint1_linear)"/>
<path d="M5.25464 112.995C-14.7227 188.059 24.068 264.815 93.4186 294.556C49.808 264.979 47.116 228.603 54.288 200.896C55.232 197.225 56.3453 193.712 57.5547 190.388C64.5267 171.396 74.7093 158.52 74.7093 158.52C71.9067 150.588 68.4067 143.684 64.4947 137.628C64.2427 137.237 64.028 136.859 63.7573 136.463C63.5133 136.112 63.268 135.789 63.024 135.437C53.8027 122.345 38.1507 107.461 12.2453 100.553C11.352 100.315 10.4307 100.104 9.51465 99.8813C7.94932 104.167 6.47331 108.508 5.25464 112.995" fill="url(#paint2_linear)"/>
<path d="M244.981 217.32C241.327 218.336 237.731 219.127 234.253 219.744C214.316 223.203 198.073 220.824 198.073 220.824C192.604 227.213 188.38 233.701 185.081 240.112C184.88 240.529 184.661 240.907 184.449 241.336C184.267 241.724 184.111 242.096 183.928 242.483C177.193 257.013 172.136 278.012 179.108 303.904C179.343 304.789 179.625 305.7 179.892 306.605C184.385 305.815 188.885 304.917 193.373 303.727C268.372 283.503 315.455 211.529 306.527 136.595C302.719 189.155 272.568 209.681 244.981 217.32" fill="url(#paint3_linear)"/>
<path d="M62.8453 31.252C62.8453 31.252 29.3693 52.216 11.8747 94.3C16.4587 95.0973 63.1573 104.511 80.5546 156.405C84.8106 153.691 97.8707 143.375 106.649 114.945C117.257 80.58 137.404 55.2253 163.524 44.1893C163.524 44.1893 145.711 18.7987 109.521 18.7987C96.3906 18.7973 80.8413 22.14 62.8453 31.252" fill="url(#paint4_linear)"/>
<path d="M93.4187 294.556C93.4187 294.556 128.265 313.039 173.409 307.188C172.593 304.939 168.925 293.969 168.92 278.679C168.911 261.257 173.749 238.2 193.099 216.477L193.315 216.143C190.157 212.765 179.099 204.452 150.661 210.932C115.599 218.931 76.9093 218.003 54.288 200.896C54.288 200.896 29.992 253.129 93.4187 294.556" fill="url(#paint5_linear)"/>
<path d="M209.177 91.8761C202.809 91.8761 196.049 91.2308 188.903 89.7534L188.563 89.6734C187.259 94.4601 186.181 108.017 205.493 128.836C229.937 155.208 248.481 189.177 244.981 217.32C244.981 217.32 302.371 212.244 306.527 136.595C306.527 136.595 305.111 97.1347 277.433 60.9521C272.443 67.0041 248.739 91.8441 209.177 91.8761" fill="url(#paint6_linear)"/>
<defs>
<radialGradient id="paint0_radial" cx="0" cy="0" r="1" gradientUnits="userSpaceOnUse" gradientTransform="translate(144.836 136.698) rotate(0.055666) scale(45.3288 45.4605)">
<stop stop-color="#4496D1"/>
<stop offset="1" stop-color="#14256D"/>
</radialGradient>
<linearGradient id="paint1_linear" x1="110.895" y1="10.949" x2="246.498" y2="65.5542" gradientUnits="userSpaceOnUse">
<stop stop-color="#4496D1"/>
<stop offset="1" stop-color="#14256D"/>
</linearGradient>
<linearGradient id="paint2_linear" x1="51.8185" y1="263.095" x2="31.3054" y2="118.36" gradientUnits="userSpaceOnUse">
<stop stop-color="#4496D1"/>
<stop offset="1" stop-color="#14256D"/>
</linearGradient>
<linearGradient id="paint3_linear" x1="300.086" y1="188.36" x2="184.997" y2="278.489" gradientUnits="userSpaceOnUse">
<stop stop-color="#4496D1"/>
<stop offset="1" stop-color="#14256D"/>
</linearGradient>
<linearGradient id="paint4_linear" x1="56.6503" y1="114.751" x2="117.604" y2="21.2188" gradientUnits="userSpaceOnUse">
<stop stop-color="#4496D1"/>
<stop offset="1" stop-color="#14256D"/>
</linearGradient>
<linearGradient id="paint5_linear" x1="171.968" y1="248.142" x2="62.6239" y2="259.289" gradientUnits="userSpaceOnUse">
<stop stop-color="#4496D1"/>
<stop offset="1" stop-color="#14256D"/>
</linearGradient>
<linearGradient id="paint6_linear" x1="242.368" y1="89.976" x2="264.661" y2="202.504" gradientUnits="userSpaceOnUse">
<stop stop-color="#4496D1"/>
<stop offset="1" stop-color="#14256D"/>
</linearGradient>
</defs>
</svg>
