<svg version="1.2" xmlns="http://www.w3.org/2000/svg" viewBox="0 0 311 309" width="311" height="309">
	<title>Новый проект</title>
	<defs>
		<radialGradient id="g1" cx="144.8" cy="136.7" r="45.3" gradientUnits="userSpaceOnUse">
			<stop offset="0" stop-color="#4496d1"/>
			<stop offset="1" stop-color="#14256d"/>
		</radialGradient>
		<linearGradient id="g2" x1="110.9" y1="10.9" x2="246.5" y2="65.6" gradientUnits="userSpaceOnUse">
			<stop offset="0" stop-color="#4496d1"/>
			<stop offset="1" stop-color="#14256d"/>
		</linearGradient>
		<linearGradient id="g3" x1="51.8" y1="263.1" x2="31.3" y2="118.4" gradientUnits="userSpaceOnUse">
			<stop offset="0" stop-color="#4496d1"/>
			<stop offset="1" stop-color="#14256d"/>
		</linearGradient>
		<linearGradient id="g4" x1="300.1" y1="188.4" x2="185" y2="278.5" gradientUnits="userSpaceOnUse">
			<stop offset="0" stop-color="#4496d1"/>
			<stop offset="1" stop-color="#14256d"/>
		</linearGradient>
		<linearGradient id="g5" x1="56.7" y1="114.8" x2="117.6" y2="21.2" gradientUnits="userSpaceOnUse">
			<stop offset="0" stop-color="#4496d1"/>
			<stop offset="1" stop-color="#14256d"/>
		</linearGradient>
		<linearGradient id="g6" x1="172" y1="248.1" x2="62.6" y2="259.3" gradientUnits="userSpaceOnUse">
			<stop offset="0" stop-color="#4496d1"/>
			<stop offset="1" stop-color="#14256d"/>
		</linearGradient>
		<linearGradient id="g7" x1="242.4" y1="90" x2="264.7" y2="202.5" gradientUnits="userSpaceOnUse">
			<stop offset="0" stop-color="#4496d1"/>
			<stop offset="1" stop-color="#14256d"/>
		</linearGradient>
	</defs>
	<style>
		.s0 { fill: url(#g1) } 
		.s1 { fill: url(#g2) } 
		.s2 { fill: url(#g3) } 
		.s3 { fill: url(#g4) } 
		.s4 { fill: url(#g5) } 
		.s5 { fill: url(#g6) } 
		.s6 { fill: url(#g7) } 
	</style>
	<path id="Layer" class="s0" d="m131.3 133c-12 13.2-11 33.7 2.2 45.6 13.2 12 33.6 11 45.5-2.2 12-13.2 10.9-33.7-2.2-45.6-6.2-5.6-14-8.4-21.7-8.4-8.8 0-17.5 3.6-23.8 10.6z"/>
	<path id="Layer" class="s1" d="m62.8 31.3c47.5-23 80.3-7.2 100.7 12.9 2.7 2.6 5.2 5.4 7.5 8.1 13 15.5 19 30.8 19 30.8 8.3 1.5 16 1.9 23.2 1.6 0.5-0.1 0.9-0.1 1.4-0.1 0.4 0 0.8-0.1 1.2-0.1 16-1.5 36.7-7.6 55.6-26.6q1-0.9 2-2c-2.9-3.5-6-6.9-9.2-10.2-30.2-30.1-69.6-45.1-109-45.1-32.5 0-65 10.2-92.4 30.7z"/>
	<path id="Layer" class="s2" d="m5.3 113c-20 75.1 18.8 151.8 88.1 181.6-43.6-29.6-46.3-66-39.1-93.7 0.9-3.7 2-7.2 3.3-10.5 6.9-19 17.1-31.9 17.1-31.9-2.8-7.9-6.3-14.8-10.2-20.9-0.3-0.4-0.5-0.7-0.7-1.1q-0.4-0.5-0.8-1.1c-9.2-13.1-24.8-27.9-50.8-34.8q-1.3-0.4-2.7-0.7c-1.6 4.3-3 8.6-4.2 13.1z"/>
	<path id="Layer" class="s3" d="m245 217.3c-3.7 1-7.3 1.8-10.7 2.4-20 3.5-36.2 1.1-36.2 1.1-5.5 6.4-9.7 12.9-13 19.3-0.2 0.4-0.4 0.8-0.7 1.2q-0.2 0.6-0.5 1.2c-6.7 14.5-11.8 35.5-4.8 61.4 0.2 0.9 0.5 1.8 0.8 2.7 4.5-0.8 9-1.7 13.5-2.9 75-20.2 122.1-92.2 113.1-167.1-3.8 52.6-33.9 73.1-61.5 80.7z"/>
	<path id="Layer" class="s4" d="m62.8 31.3c0 0-33.4 20.9-50.9 63 4.6 0.8 51.3 10.2 68.7 62.1 4.2-2.7 17.3-13 26-41.5 10.7-34.3 30.8-59.7 56.9-70.7 0 0-17.8-25.4-54-25.4-13.1 0-28.7 3.3-46.7 12.5z"/>
	<path id="Layer" class="s5" d="m93.4 294.6c0 0 34.9 18.4 80 12.6-0.8-2.3-4.5-13.2-4.5-28.5 0-17.4 4.8-40.5 24.2-62.2l0.2-0.4c-3.1-3.3-14.2-11.6-42.6-5.2-35.1 8-73.8 7.1-96.4-10 0 0-24.3 52.2 39.1 93.7z"/>
	<path id="Layer" class="s6" d="m209.2 91.9c-6.4 0-13.2-0.7-20.3-2.1l-0.3-0.1c-1.3 4.8-2.4 18.3 16.9 39.1 24.4 26.4 43 60.4 39.5 88.5 0 0 57.4-5.1 61.5-80.7 0 0-1.4-39.5-29.1-75.6-5 6-28.7 30.8-68.2 30.9z"/>
</svg>