<?xml version="1.0" standalone="no"?>
<!DOCTYPE svg PUBLIC "-//W3C//DTD SVG 20010904//EN"
 "http://www.w3.org/TR/2001/REC-SVG-20010904/DTD/svg10.dtd">
<svg version="1.0" xmlns="http://www.w3.org/2000/svg"
 width="622.000000pt" height="622.000000pt" viewBox="0 0 622.000000 622.000000"
 preserveAspectRatio="xMidYMid meet">
<metadata>
Created by potrace 1.14, written by Peter Selinger 2001-2017
</metadata>
<g transform="translate(0.000000,622.000000) scale(0.100000,-0.100000)"
fill="#000000" stroke="none">
<path d="M2896 6183 c-2 -2 -36 -6 -77 -9 -41 -3 -85 -7 -99 -9 -14 -3 -45 -7
-70 -10 -25 -3 -70 -11 -100 -17 -30 -7 -59 -11 -64 -9 -4 1 -14 -3 -20 -9 -7
-5 -15 -7 -18 -5 -3 3 -16 1 -30 -4 -14 -5 -41 -12 -60 -15 -19 -3 -47 -10
-62 -15 -14 -6 -26 -8 -26 -5 0 4 -6 2 -12 -4 -7 -5 -29 -13 -48 -17 -19 -4
-41 -12 -47 -17 -7 -6 -13 -8 -13 -4 0 6 -91 -25 -145 -49 -16 -8 -33 -11 -37
-9 -4 3 -8 0 -8 -5 0 -6 -7 -11 -15 -11 -21 0 -246 -106 -333 -157 -41 -24
-76 -43 -79 -43 -4 0 -21 -11 -40 -26 -18 -14 -33 -22 -33 -19 0 3 -6 1 -12
-5 -7 -5 -81 -58 -164 -118 -206 -146 -263 -193 -408 -337 -152 -151 -268
-293 -385 -471 -77 -117 -85 -131 -152 -254 -32 -57 -101 -211 -97 -214 2 -1
28 -8 58 -16 45 -11 103 -28 185 -54 6 -2 12 -3 15 -3 3 1 19 -6 35 -15 17 -8
80 -39 140 -69 106 -51 278 -160 340 -214 17 -14 56 -49 89 -77 50 -44 141
-143 210 -228 85 -105 209 -329 266 -482 l33 -88 46 38 c89 71 204 206 255
297 9 17 25 44 36 60 11 17 23 37 26 45 4 8 21 47 39 85 18 39 42 97 55 130
12 33 26 69 31 80 4 11 15 45 24 75 9 30 19 62 22 70 4 8 7 17 8 20 39 145
190 464 292 618 32 48 60 91 62 96 2 5 9 16 17 25 7 9 29 36 49 61 73 91 172
195 250 262 112 97 125 107 149 120 11 6 23 14 26 17 10 12 127 79 198 113
l73 35 48 -51 c90 -97 119 -131 167 -196 27 -36 51 -67 54 -70 19 -16 148
-234 202 -339 35 -69 65 -124 68 -124 3 1 25 -3 50 -8 145 -28 445 -30 570 -4
13 2 40 7 60 10 19 3 60 12 90 21 30 8 64 17 74 19 159 36 429 176 597 310
105 85 209 182 209 197 0 19 -168 201 -286 309 -128 116 -323 260 -492 363
-145 87 -479 244 -557 260 -11 3 -47 14 -79 26 -33 12 -120 37 -195 55 -126
31 -171 41 -244 51 -15 2 -39 6 -55 9 -26 4 -69 10 -177 21 -57 7 -473 12
-479 7z"/>
<path d="M5480 4909 c-98 -101 -261 -228 -380 -297 -31 -19 -218 -112 -223
-112 -3 0 -21 -7 -41 -15 -20 -8 -38 -15 -41 -16 -3 0 -24 -7 -47 -15 -24 -9
-50 -17 -58 -19 -8 -2 -40 -11 -70 -20 -68 -19 -116 -27 -260 -42 -82 -9 -306
-9 -385 1 -112 13 -185 25 -195 31 -13 8 -18 -29 -15 -121 2 -99 31 -200 88
-306 32 -61 36 -68 72 -123 25 -39 120 -160 165 -209 19 -21 46 -51 60 -66 14
-15 43 -49 65 -75 22 -26 47 -55 55 -64 34 -37 190 -250 190 -260 0 -6 4 -11
8 -11 4 0 16 -15 26 -32 11 -18 27 -42 37 -53 10 -11 19 -24 20 -30 2 -11 22
-45 49 -85 67 -99 221 -452 245 -560 1 -8 8 -35 15 -60 15 -54 19 -76 25 -115
3 -16 7 -41 11 -55 7 -34 13 -269 7 -302 -4 -19 -13 -28 -36 -33 -18 -4 -39
-9 -47 -12 -8 -2 -27 -5 -43 -8 -15 -2 -31 -6 -35 -9 -4 -2 -32 -7 -62 -11
-30 -4 -57 -8 -60 -10 -5 -3 -93 -12 -195 -21 -102 -9 -414 -3 -455 9 -8 2
-74 -78 -132 -158 -36 -50 -158 -258 -158 -269 0 -4 -9 -28 -21 -54 -45 -102
-93 -246 -104 -316 -3 -17 -8 -42 -10 -56 -11 -53 -13 -67 -21 -130 -4 -36 -7
-119 -7 -185 0 -126 4 -181 27 -327 10 -59 49 -209 56 -213 16 -10 299 54 400
90 25 9 52 18 60 20 29 6 186 68 268 106 46 22 86 39 89 39 23 0 409 231 459
275 7 6 33 26 59 45 185 139 417 367 553 544 26 34 49 63 52 66 9 8 170 248
170 253 0 3 17 34 38 68 71 119 232 469 215 469 -3 0 -1 6 5 13 7 9 33 84 48
140 1 4 3 9 4 12 1 3 4 10 5 15 1 6 4 12 5 15 1 3 3 8 4 13 1 4 7 27 13 52 24
88 41 166 48 210 4 24 8 47 10 50 2 3 7 33 10 65 4 33 9 67 10 76 21 112 33
477 20 599 -2 19 -6 73 -10 120 -4 47 -8 96 -10 110 -2 14 -7 45 -10 70 -5 38
-18 109 -41 230 -47 243 -191 612 -330 847 -75 126 -99 163 -106 163 -4 0 -8
7 -8 15 0 8 -4 15 -9 15 -5 0 -12 8 -16 18 -3 9 -18 31 -33 47 l-27 30 -65
-66z"/>
<path d="M185 4183 c-5 -10 -9 -20 -10 -23 -1 -3 -4 -12 -8 -20 -20 -52 -73
-240 -82 -289 -3 -19 -7 -37 -9 -40 -2 -3 -7 -22 -10 -41 -3 -19 -8 -46 -11
-60 -4 -14 -8 -38 -10 -55 -3 -16 -7 -46 -10 -65 -24 -148 -30 -236 -29 -450
0 -182 7 -316 18 -375 2 -11 7 -42 11 -70 4 -27 8 -61 10 -75 2 -14 11 -59 20
-100 9 -41 18 -82 20 -90 17 -78 79 -278 126 -405 40 -105 187 -402 244 -490
25 -38 48 -77 52 -85 4 -8 12 -21 19 -30 7 -8 37 -49 66 -90 179 -251 469
-538 708 -701 36 -24 67 -47 70 -50 12 -14 242 -148 330 -191 227 -112 341
-160 510 -214 104 -33 332 -88 415 -99 11 -2 39 -6 62 -9 76 -12 107 -15 198
-23 191 -15 547 -4 569 17 6 6 4 30 -6 62 -74 244 -89 532 -42 823 13 80 65
273 90 330 10 22 18 45 20 50 2 10 76 162 105 215 31 56 110 170 172 249 37
46 67 88 67 92 0 4 -15 18 -32 30 -18 13 -35 26 -38 29 -3 3 -36 18 -75 33
-108 43 -201 56 -355 52 -157 -5 -160 -5 -410 -56 -25 -5 -56 -12 -70 -14 -14
-3 -36 -7 -50 -10 -37 -8 -149 -26 -195 -31 -45 -6 -84 -10 -200 -20 -97 -9
-408 -9 -485 0 -30 3 -75 8 -100 11 -25 2 -61 7 -80 11 -19 3 -48 8 -65 11
-93 13 -324 87 -400 126 -22 12 -42 21 -45 22 -8 0 -130 72 -154 90 -17 13
-17 18 -6 67 7 29 22 76 32 103 11 28 21 57 23 65 2 8 15 41 29 73 14 31 26
59 25 62 0 6 98 201 131 260 12 22 52 84 87 138 l65 98 -23 62 c-12 34 -28 73
-34 87 -7 14 -19 39 -26 55 -33 72 -134 242 -176 295 -74 95 -233 269 -233
255 0 -3 -12 8 -27 23 -16 16 -46 41 -68 58 -22 16 -49 37 -59 47 -11 9 -25
17 -32 17 -7 0 -14 4 -16 9 -10 27 -300 168 -438 214 -150 49 -166 52 -175 30z"/>
<path d="M2995 3743 c-46 -9 -111 -27 -120 -33 -5 -4 -21 -11 -35 -15 -66 -20
-171 -105 -256 -207 -26 -31 -93 -164 -99 -196 -2 -13 -7 -33 -11 -45 -14 -43
-19 -174 -8 -232 14 -82 21 -112 34 -134 6 -12 8 -21 4 -21 -4 0 -1 -8 7 -17
8 -10 21 -31 29 -48 29 -61 102 -146 180 -208 33 -28 149 -86 195 -98 56 -16
72 -18 139 -24 32 -3 62 -8 67 -11 5 -3 9 -2 9 3 0 4 15 8 33 9 54 2 121 15
136 27 8 7 15 11 15 9 1 -4 52 14 86 31 39 19 121 80 164 123 85 84 156 226
175 349 10 66 7 207 -5 227 -4 7 -9 24 -11 39 -1 15 -8 39 -14 55 -7 16 -13
31 -14 34 0 3 -13 28 -27 55 -57 109 -170 218 -274 265 -41 19 -99 43 -99 40
0 0 -21 6 -48 14 -43 13 -201 19 -252 9z"/>
</g>
</svg>
